<?xml version="1.0" standalone="no"?>
<!DOCTYPE svg PUBLIC "-//W3C//DTD SVG 20010904//EN"
 "http://www.w3.org/TR/2001/REC-SVG-20010904/DTD/svg10.dtd">
<svg version="1.0" xmlns="http://www.w3.org/2000/svg"
 width="429.000000pt" height="117.000000pt" viewBox="0 0 429.000000 117.000000"
 preserveAspectRatio="xMidYMid meet">

<g transform="translate(0.000000,117.000000) scale(0.100000,-0.100000)"
fill="#000000" stroke="none">
<path d="M589 1047 c-15 -12 -39 -44 -54 -72 -18 -34 -21 -43 -8 -29 23 25 62
48 71 40 3 -3 0 -6 -7 -6 -7 0 -9 -5 -6 -10 4 -6 1 -17 -5 -25 -11 -13 -8 -13
22 -1 44 19 70 7 116 -54 19 -25 39 -46 46 -48 8 -3 8 -1 0 5 -16 12 -10 59 7
55 8 -2 19 -9 24 -16 6 -7 20 -16 32 -20 13 -4 22 -10 22 -14 -5 -33 3 -52 22
-52 28 0 19 24 -46 126 -85 130 -173 176 -236 121z"/>
<path d="M604 909 c-4 -7 0 -9 14 -5 13 5 30 -2 52 -21 29 -24 32 -25 21 -5
-19 36 -72 55 -87 31z"/>
<path d="M1336 844 c-9 -8 -16 -22 -16 -29 0 -17 27 -45 44 -45 8 0 19 7 26
15 8 9 8 15 2 15 -6 0 -12 -5 -14 -12 -7 -21 -38 0 -38 27 0 27 31 48 38 27 2
-7 8 -12 14 -12 6 0 6 6 -2 15 -16 19 -35 19 -54 -1z"/>
<path d="M1410 815 c0 -44 0 -45 33 -44 23 1 26 3 10 6 -27 5 -31 30 -5 36 16
4 16 5 0 6 -26 2 -22 29 5 34 16 3 13 5 -10 6 -33 1 -33 0 -33 -44z"/>
<path d="M1487 854 c-10 -11 -8 -84 2 -84 5 0 11 17 14 38 4 37 -3 59 -16 46z"/>
<path d="M1541 836 c-1 -24 -3 -27 -16 -16 -21 17 -18 0 4 -29 l18 -24 5 24
c2 13 1 35 -3 49 -7 25 -7 25 -8 -4z"/>
<path d="M1577 852 c6 -4 13 -25 16 -47 l4 -40 1 42 c1 23 8 44 15 46 6 3 -1
6 -18 6 -17 0 -25 -3 -18 -7z"/>
<path d="M1641 813 c1 -27 4 -38 6 -25 5 27 20 29 28 2 3 -11 11 -20 16 -20 6
0 7 6 1 17 -7 11 -6 23 2 35 12 21 -4 38 -36 38 -15 0 -18 -8 -17 -47z m39 22
c0 -8 -7 -15 -15 -15 -8 0 -15 7 -15 15 0 8 7 15 15 15 8 0 15 -7 15 -15z"/>
<path d="M1710 815 c0 -44 0 -45 33 -44 23 1 26 3 10 6 -27 5 -31 30 -5 36 16
4 16 5 0 6 -26 2 -22 29 5 34 16 3 13 5 -10 6 -33 1 -33 0 -33 -44z"/>
<path d="M1820 815 c0 -40 2 -45 23 -44 16 1 18 2 5 6 -13 3 -18 14 -18 38 0
24 5 35 18 38 13 4 11 5 -5 6 -21 1 -23 -4 -23 -44z"/>
<path d="M1900 815 c0 -44 0 -45 33 -44 30 2 30 2 5 6 -34 5 -37 30 -5 36 l22
4 -22 2 c-33 2 -29 29 5 34 25 4 25 4 -5 6 -33 1 -33 0 -33 -44z"/>
<path d="M2011 813 c1 -27 4 -38 6 -26 2 13 13 24 26 26 l22 4 -22 2 c-13 0
-23 7 -23 15 0 8 10 17 23 19 19 4 18 4 -5 6 -27 1 -28 -1 -27 -46z"/>
<path d="M2160 815 c0 -25 5 -45 10 -45 6 0 10 9 10 20 0 11 4 20 9 20 5 0 13
-9 16 -20 3 -11 11 -20 16 -20 6 0 6 7 0 18 -7 13 -7 22 1 30 16 16 -8 42 -38
42 -22 0 -24 -4 -24 -45z m50 20 c0 -8 -7 -15 -15 -15 -8 0 -15 7 -15 15 0 8
7 15 15 15 8 0 15 -7 15 -15z"/>
<path d="M2241 813 c1 -27 4 -38 6 -25 6 28 20 28 29 0 l6 -21 13 23 13 24 5
-24 c2 -14 5 -5 6 23 0 26 -1 47 -4 47 -3 0 -11 -15 -19 -32 l-14 -33 -12 33
c-17 46 -30 39 -29 -15z"/>
<path d="M2351 819 c-7 -23 -10 -44 -7 -47 3 -3 6 0 6 6 0 16 37 15 43 0 11
-26 7 20 -4 51 -15 41 -23 39 -38 -10z m29 -9 c0 -5 -4 -10 -10 -10 -5 0 -10
5 -10 10 0 6 5 10 10 10 6 0 10 -4 10 -10z"/>
<path d="M2407 852 c6 -4 13 -25 16 -47 l4 -40 1 42 c2 30 7 43 20 46 9 3 1 5
-18 6 -19 0 -30 -3 -23 -7z"/>
<path d="M2473 815 c0 -27 2 -38 4 -22 2 15 2 37 0 50 -2 12 -4 0 -4 -28z"/>
<path d="M2512 848 c-24 -24 -8 -78 24 -78 17 0 44 28 44 45 0 17 -27 45 -44
45 -6 0 -17 -5 -24 -12z m46 -31 c2 -18 -2 -29 -13 -33 -24 -9 -39 10 -31 41
9 35 40 30 44 -8z"/>
<path d="M2591 813 c1 -30 4 -37 6 -20 2 15 7 27 11 27 3 0 16 -12 29 -27 l22
-28 -1 50 c0 40 -2 44 -7 20 l-6 -29 -21 27 c-12 15 -25 27 -28 27 -3 0 -5
-21 -5 -47z"/>
<path d="M2720 815 c0 -43 1 -45 28 -44 23 2 24 2 5 6 -13 2 -23 11 -23 18 0
7 10 16 23 18 l22 4 -22 2 c-13 0 -23 7 -23 15 0 8 10 17 23 19 19 4 18 4 -5
6 -27 1 -28 -1 -28 -44z"/>
<path d="M2792 815 c0 -43 2 -45 7 -17 l6 32 20 -30 c11 -16 23 -30 28 -30 4
0 6 21 6 48 -1 29 -4 36 -6 20 -2 -16 -7 -28 -11 -28 -3 0 -16 12 -29 28 l-22
27 1 -50z"/>
<path d="M2913 815 c0 -27 2 -38 4 -22 2 15 2 37 0 50 -2 12 -4 0 -4 -28z"/>
<path d="M2941 813 c1 -30 4 -37 6 -20 2 15 7 27 11 27 3 0 16 -12 29 -27 l22
-28 -1 50 c0 40 -2 44 -7 20 l-6 -29 -21 27 c-12 15 -25 27 -28 27 -3 0 -5
-21 -5 -47z"/>
<path d="M3031 813 c1 -27 4 -38 6 -26 2 13 13 24 26 26 l22 4 -22 2 c-13 0
-23 7 -23 15 0 8 10 17 23 19 19 4 18 4 -5 6 -27 1 -28 -1 -27 -46z"/>
<path d="M3188 838 c-2 -13 -1 -34 3 -48 7 -24 7 -24 8 -2 1 27 17 29 26 2 3
-11 11 -20 16 -20 6 0 7 6 1 17 -7 11 -6 23 2 35 9 15 8 21 -4 28 -26 16 -47
11 -52 -12z m42 -3 c0 -8 -7 -15 -15 -15 -8 0 -15 7 -15 15 0 8 7 15 15 15 8
0 15 -7 15 -15z"/>
<path d="M3260 815 c0 -25 5 -45 10 -45 6 0 10 10 10 23 l1 22 13 -24 14 -24
6 21 c9 28 23 28 29 0 2 -13 5 -2 6 25 1 54 -11 61 -30 15 l-13 -32 -13 32
c-19 45 -33 40 -33 -13z"/>
<path d="M3381 838 c-5 -13 -12 -33 -16 -46 -6 -22 -5 -22 15 -10 18 10 24 10
27 1 3 -7 9 -13 13 -13 5 0 2 20 -7 45 -8 25 -17 45 -19 45 -3 0 -8 -10 -13
-22z m19 -23 c0 -8 -4 -15 -10 -15 -5 0 -7 7 -4 15 4 8 8 15 10 15 2 0 4 -7 4
-15z"/>
<path d="M3433 853 c12 -3 17 -16 19 -46 l1 -42 4 40 c3 22 10 43 16 47 7 4
-4 7 -23 7 -19 -1 -27 -3 -17 -6z"/>
<path d="M3493 815 c0 -27 2 -38 4 -22 2 15 2 37 0 50 -2 12 -4 0 -4 -28z"/>
<path d="M3610 826 c0 -39 20 -60 50 -51 16 5 20 14 19 48 l-2 42 -6 -40 c-4
-27 -12 -41 -23 -43 -15 -3 -18 4 -18 37 0 23 -4 41 -10 41 -5 0 -10 -15 -10
-34z"/>
<path d="M3697 853 c-2 -5 -2 -14 -1 -20 1 -7 2 -24 3 -38 1 -21 6 -25 29 -24
23 2 24 2 5 6 -13 2 -23 11 -23 18 0 7 10 16 23 18 l22 4 -22 2 c-13 0 -23 7
-23 15 0 8 10 17 23 19 19 4 19 4 -5 6 -15 0 -29 -2 -31 -6z"/>
<path d="M1870 815 c0 -22 4 -34 10 -30 6 3 10 17 10 30 0 13 -4 27 -10 30 -6
4 -10 -8 -10 -30z"/>
<path d="M2077 843 c-9 -9 -9 -51 1 -56 4 -3 7 10 7 29 0 19 0 34 -1 34 0 0
-4 -3 -7 -7z"/>
<path d="M2131 815 c0 -35 2 -37 11 -19 7 15 7 28 -1 40 -9 16 -10 12 -10 -21z"/>
<path d="M3097 843 c-10 -9 -8 -51 2 -57 5 -3 9 10 9 29 0 37 -1 39 -11 28z"/>
<path d="M3154 815 c0 -19 4 -31 8 -29 4 3 8 16 8 29 0 13 -4 26 -8 29 -4 2
-8 -10 -8 -29z"/>
<path d="M3527 843 c-9 -9 -9 -51 1 -56 4 -3 7 10 7 29 0 19 0 34 -1 34 0 0
-4 -3 -7 -7z"/>
<path d="M3580 818 c0 -26 -5 -38 -17 -41 -12 -3 -10 -5 7 -6 21 -1 26 4 28
25 1 14 -2 33 -8 42 -7 13 -9 9 -10 -20z"/>
<path d="M915 770 c-37 -7 -35 -7 23 -9 35 0 77 -8 93 -17 17 -8 36 -13 42
-11 7 2 20 -6 30 -17 10 -12 24 -21 29 -21 6 0 17 -16 25 -35 l13 -35 -5 34
c-3 19 -13 43 -23 54 -42 47 -143 72 -227 57z"/>
<path d="M147 752 c-8 -9 -20 -30 -26 -45 -31 -82 97 -205 295 -283 99 -39 99
-38 -11 39 -144 100 -181 144 -169 200 l6 32 -21 -19 c-21 -19 -21 -19 -21 0
0 16 -2 17 -11 4 -8 -11 -12 -12 -16 -2 -2 6 -9 10 -13 7 -5 -3 -12 0 -16 6
-4 8 -3 9 4 5 7 -4 12 -1 12 8 0 9 -5 16 -10 16 -6 0 -3 11 6 25 19 29 14 33
-9 7z"/>
<path d="M1383 680 c-68 -41 -87 -124 -44 -193 29 -48 81 -67 181 -67 73 0 80
2 80 20 0 19 -7 20 -96 20 -92 0 -97 1 -125 29 -39 39 -41 105 -4 145 23 25
29 26 125 26 93 0 100 1 100 20 0 19 -7 20 -92 20 -75 0 -99 -4 -125 -20z"/>
<path d="M1660 559 c0 -128 2 -140 18 -137 15 3 17 17 18 116 1 62 4 115 7
119 4 3 43 5 88 4 78 -2 116 9 103 30 -3 5 -57 9 -120 9 l-114 0 0 -141z"/>
<path d="M1950 560 c0 -129 1 -141 18 -138 15 3 17 18 17 138 0 120 -2 135
-17 138 -17 3 -18 -9 -18 -138z"/>
<path d="M2241 682 c-65 -33 -90 -125 -51 -189 33 -55 62 -67 173 -71 92 -4
99 -3 95 14 -3 17 -16 20 -106 24 -95 5 -105 7 -122 30 -26 34 -27 110 -1 141
17 22 29 24 122 29 89 4 104 8 107 23 3 15 -6 17 -90 17 -69 0 -102 -5 -127
-18z"/>
<path d="M2520 560 c0 -118 2 -140 15 -140 13 0 15 22 15 140 0 118 -2 140
-15 140 -13 0 -15 -22 -15 -140z"/>
<path d="M2624 687 c-2 -7 -3 -69 -2 -137 3 -110 5 -125 21 -128 15 -3 17 8
17 117 l0 121 103 0 c116 0 127 -5 127 -60 0 -56 -22 -70 -109 -70 -54 0 -72
-3 -69 -12 3 -8 27 -14 61 -16 52 -3 58 -6 87 -42 23 -29 39 -40 58 -40 l27 1
-26 23 c-46 40 -52 60 -25 85 48 46 38 128 -20 156 -42 20 -242 22 -250 2z"/>
<path d="M3093 598 c-33 -57 -71 -120 -83 -140 -21 -36 -21 -38 -3 -38 17 0
26 14 99 142 46 81 62 86 99 28 37 -58 34 -70 -19 -70 -31 0 -46 -5 -50 -16
-4 -11 0 -15 17 -14 12 1 43 2 69 1 44 -1 48 -4 64 -36 12 -25 23 -35 40 -35
22 0 21 4 -29 83 -29 45 -68 108 -86 140 -18 31 -38 57 -45 57 -7 0 -40 -46
-73 -102z"/>
<path d="M3426 679 c-33 -26 -36 -77 -5 -105 17 -15 41 -20 126 -24 116 -5
132 -14 119 -63 l-6 -26 -127 -3 c-112 -3 -128 -5 -131 -20 -3 -16 7 -18 113
-18 150 0 185 16 185 84 0 12 -9 32 -20 44 -18 19 -31 22 -105 22 -112 0 -137
10 -133 52 l3 33 115 3 c108 3 138 11 124 34 -3 4 -56 8 -118 8 -99 0 -117 -3
-140 -21z"/>
<path d="M266 654 c-10 -25 -8 -32 26 -69 32 -37 141 -125 154 -125 4 0 -16
24 -45 54 -28 30 -51 63 -51 74 0 26 -11 34 -27 20 -11 -9 -15 -7 -20 10 -3
12 -10 22 -15 22 -6 0 -8 7 -4 15 3 8 1 15 -3 15 -5 0 -12 -7 -15 -16z"/>
<path d="M1750 561 c0 -5 29 -11 65 -13 47 -2 65 0 65 10 0 8 -20 12 -65 12
-36 0 -65 -4 -65 -9z"/>
<path d="M2045 560 c3 -5 21 -10 40 -10 19 0 37 5 40 10 4 6 -12 10 -40 10
-28 0 -44 -4 -40 -10z"/>
<path d="M843 550 c3 -8 21 -53 41 -100 58 -140 60 -208 6 -230 -33 -14 -59
-9 -138 22 l-54 21 -41 -42 c-49 -48 -47 -50 50 -81 141 -44 216 -47 271 -12
24 16 40 81 31 127 -12 62 -82 202 -131 261 -23 27 -39 42 -35 34z"/>
<path d="M845 475 c25 -146 18 -171 -51 -161 -33 4 -45 1 -59 -14 -17 -19 -16
-20 29 -40 53 -22 116 -26 134 -8 21 21 12 80 -24 168 -19 47 -32 72 -29 55z"/>
<path d="M261 400 c-37 -170 11 -310 106 -310 42 0 141 43 188 82 17 14 37 29
47 34 21 12 130 115 126 120 -2 2 -24 -10 -48 -27 -81 -54 -198 -109 -235
-109 -51 0 -71 35 -68 120 1 36 4 73 5 83 2 14 -9 23 -47 38 -27 10 -53 19
-57 19 -3 0 -11 -23 -17 -50z"/>
<path d="M406 384 c-11 -28 -6 -150 6 -162 7 -7 23 -12 36 -12 28 0 154 59
192 90 22 18 18 17 -39 -5 -107 -41 -146 -30 -140 39 3 26 -2 40 -16 50 -26
20 -32 20 -39 0z"/>
<path d="M1783 253 c9 -2 23 -2 30 0 6 3 -1 5 -18 5 -16 0 -22 -2 -12 -5z"/>
<path d="M1833 225 c0 -16 2 -24 5 -17 3 9 8 10 17 2 9 -8 12 -4 11 18 -1 40
-33 38 -33 -3z"/>
<path d="M1880 245 c-10 -12 -10 -18 0 -30 14 -17 36 -20 44 -6 4 5 -3 7 -14
4 -15 -4 -20 0 -20 16 0 24 10 27 29 9 11 -11 13 -10 9 2 -6 21 -32 24 -48 5z"/>
<path d="M1940 230 c0 -25 4 -30 23 -29 16 1 18 2 5 6 -10 2 -18 8 -18 13 0 5
8 11 18 13 14 4 14 5 -3 7 l-20 1 20 9 c19 8 19 9 -2 9 -19 1 -23 -4 -23 -29z"/>
<path d="M1991 233 c-1 -28 2 -33 22 -32 15 1 17 3 5 6 -9 2 -19 16 -21 31 -4
24 -4 24 -6 -5z"/>
<path d="M2041 233 c-1 -28 2 -33 22 -32 15 1 17 3 5 6 -9 2 -19 16 -21 31 -4
24 -4 24 -6 -5z"/>
<path d="M2090 230 c0 -25 4 -30 23 -29 16 1 18 2 5 6 -10 2 -18 8 -18 13 0 5
8 11 18 13 14 4 14 5 -3 7 l-20 1 20 9 c19 8 19 9 -2 9 -19 1 -23 -4 -23 -29z"/>
<path d="M2141 228 c1 -30 2 -31 8 -8 l7 24 16 -22 c10 -15 17 -19 20 -11 3 9
9 8 26 -2 16 -10 24 -11 33 -2 9 9 7 11 -10 6 -17 -4 -21 -1 -21 17 0 18 4 21
21 17 17 -5 19 -3 10 6 -8 8 -19 7 -43 -7 -29 -18 -32 -18 -43 -2 -18 24 -25
20 -24 -16z"/>
<path d="M2270 230 c0 -25 4 -30 23 -29 16 1 18 2 5 6 -10 2 -18 8 -18 13 0 5
8 11 18 13 14 4 14 5 -3 7 l-20 1 20 9 c19 8 19 9 -2 9 -19 1 -23 -4 -23 -29z"/>
<path d="M2443 253 c-18 -7 -16 -40 3 -47 30 -12 44 -6 44 18 0 18 -21 41 -33
35 -1 0 -8 -3 -14 -6z m33 -14 c10 -17 -13 -36 -27 -22 -12 12 -4 33 11 33 5
0 12 -5 16 -11z"/>
<path d="M2504 230 c1 -18 7 -25 21 -25 14 0 20 7 21 25 1 22 0 22 -3 3 -2
-13 -10 -23 -18 -23 -8 0 -16 10 -18 23 -3 19 -4 19 -3 -3z"/>
<path d="M2570 241 c-15 -29 -12 -36 14 -36 21 0 22 3 14 28 -12 32 -14 33
-28 8z"/>
<path d="M2662 230 c0 -19 2 -27 5 -17 2 9 2 25 0 35 -3 9 -5 1 -5 -18z"/>
<path d="M2686 252 c7 -4 14 -18 17 -32 4 -25 4 -25 6 3 1 34 21 36 21 2 0
-21 4 -25 28 -24 23 2 24 2 5 6 -27 5 -31 23 -5 24 14 0 14 2 -3 8 -19 8 -18
9 5 13 14 3 0 6 -30 6 -30 1 -50 -2 -44 -6z"/>
<path d="M2891 228 c1 -18 3 -25 6 -15 6 21 12 22 27 1 10 -13 12 -11 11 13 0
21 -5 29 -22 31 -20 3 -23 -1 -22 -30z m36 16 c-3 -3 -12 -4 -19 -1 -8 3 -5 6
6 6 11 1 17 -2 13 -5z"/>
<path d="M2950 230 c0 -25 4 -30 23 -29 16 1 18 2 5 6 -10 2 -18 8 -18 13 0 5
8 11 18 13 14 4 14 5 -3 7 l-20 1 20 9 c19 8 19 9 -2 9 -19 1 -23 -4 -23 -29z"/>
<path d="M3003 235 c2 -23 7 -30 22 -30 14 0 20 7 21 25 1 23 1 23 -3 2 -5
-29 -25 -24 -35 9 -6 22 -7 21 -5 -6z"/>
<path d="M3065 251 c-3 -5 -1 -12 5 -16 5 -3 10 -1 10 5 0 7 7 9 16 6 8 -3 12
-2 9 4 -8 13 -32 13 -40 1z"/>
<path d="M3127 253 c-10 -10 -8 -23 4 -23 5 0 7 5 3 12 -5 8 0 9 14 6 12 -4
20 -2 16 3 -6 11 -28 12 -37 2z"/>
<path d="M3182 230 c0 -19 2 -27 5 -17 2 9 2 25 0 35 -3 9 -5 1 -5 -18z"/>
<path d="M3206 252 c7 -4 14 -18 16 -32 3 -23 4 -22 9 8 5 27 3 32 -15 32 -13
0 -17 -3 -10 -8z"/>
<path d="M3250 230 c0 -25 4 -30 23 -29 16 1 18 2 5 6 -10 2 -18 8 -18 13 0 5
8 11 18 13 14 4 14 5 -3 7 l-20 1 20 9 c19 8 19 9 -2 9 -19 1 -23 -4 -23 -29z"/>
<path d="M1770 231 c0 -4 11 -6 25 -3 14 2 25 6 25 8 0 2 -11 4 -25 4 -14 0
-25 -4 -25 -9z"/>
<path d="M2358 233 c6 -2 18 -2 25 0 6 3 1 5 -13 5 -14 0 -19 -2 -12 -5z"/>
<path d="M2818 233 c6 -2 18 -2 25 0 6 3 1 5 -13 5 -14 0 -19 -2 -12 -5z"/>
<path d="M3100 221 c0 -8 -7 -11 -15 -7 -8 3 -15 1 -15 -4 0 -6 6 -10 14 -10
17 0 31 18 22 27 -3 4 -6 1 -6 -6z"/>
<path d="M3156 218 c5 -8 0 -9 -16 -5 -16 4 -20 3 -12 -5 6 -6 18 -8 26 -5 18
7 22 27 5 27 -5 0 -7 -5 -3 -12z"/>
<path d="M1783 203 c9 -2 23 -2 30 0 6 3 -1 5 -18 5 -16 0 -22 -2 -12 -5z"/>
<path d="M2628 203 c7 -3 16 -2 19 1 4 3 -2 6 -13 5 -11 0 -14 -3 -6 -6z"/>
</g>
</svg>
